<?xml version="1.0" standalone="no"?>
<!DOCTYPE svg PUBLIC "-//W3C//DTD SVG 20010904//EN"
 "http://www.w3.org/TR/2001/REC-SVG-20010904/DTD/svg10.dtd">
<svg version="1.0" xmlns="http://www.w3.org/2000/svg"
 width="963.000000pt" height="1280.000000pt" viewBox="0 0 963.000000 1280.000000"
 preserveAspectRatio="xMidYMid meet">
<metadata>
Created by potrace 1.15, written by Peter Selinger 2001-2017
</metadata>
<g transform="translate(0.000000,1280.000000) scale(0.100000,-0.100000)"
fill="#008000" stroke="none">
<path d="M8460 12709 c-129 -49 -237 -89 -241 -89 -4 0 -5 16 -2 35 3 19 3 35
0 35 -5 0 -316 -100 -542 -175 l-40 -13 -3 44 c-2 24 -6 44 -10 44 -4 0 -128
-54 -276 -119 -149 -66 -273 -118 -276 -116 -4 2 -15 31 -25 65 -12 40 -23 59
-31 56 -7 -3 -118 -85 -246 -183 -191 -146 -323 -233 -353 -233 -3 0 -5 37 -5
82 l0 83 -316 -323 c-174 -177 -319 -322 -323 -322 -4 0 -18 23 -31 50 -13 28
-27 50 -31 50 -5 0 -61 -105 -125 -232 -99 -200 -263 -482 -312 -540 -12 -14
-31 -18 -82 -18 l-66 0 -73 -157 -72 -157 -33 -348 c-18 -191 -36 -351 -39
-355 -4 -3 -40 4 -81 15 -41 12 -77 22 -80 22 -3 0 -7 -19 -8 -42 -1 -36 -2
-38 -5 -11 -2 17 8 71 23 120 l28 88 -27 182 -26 182 -91 126 c-50 69 -93 125
-94 125 -2 0 -23 -34 -47 -75 -23 -41 -45 -75 -49 -75 -3 0 -40 118 -80 262
l-75 261 -88 111 c-49 61 -90 113 -92 114 -2 2 -13 -29 -25 -68 -12 -40 -25
-69 -29 -64 -5 5 -52 71 -105 146 -97 136 -99 138 -274 275 -96 76 -183 144
-193 151 -16 11 -19 7 -29 -45 -6 -32 -14 -66 -17 -76 -4 -15 -26 2 -111 85
-90 88 -132 119 -267 200 l-160 97 -9 -32 c-4 -18 -10 -38 -12 -45 -3 -9 -38
15 -97 65 -108 93 -465 383 -470 383 -2 0 4 -36 14 -80 9 -44 16 -80 14 -80
-2 0 -133 45 -291 100 -158 54 -290 97 -293 94 -3 -3 -17 -33 -32 -67 -19 -46
-31 -61 -44 -59 -9 2 -102 30 -207 63 -236 74 -268 81 -268 63 0 -18 19 -60
48 -107 13 -22 21 -42 17 -45 -5 -5 -587 -70 -642 -71 l-23 -1 25 -57 c14 -31
24 -58 21 -60 -2 -2 -145 -44 -317 -93 -173 -50 -319 -92 -326 -94 -7 -3 61
-103 167 -243 l179 -238 -37 -7 c-20 -4 -57 -7 -82 -8 -96 -1 -95 3 -34 -127
50 -106 63 -124 169 -238 l115 -122 -50 -7 c-27 -4 -50 -10 -50 -13 0 -3 44
-97 99 -208 l98 -202 109 -88 c60 -48 108 -92 106 -97 -1 -5 -21 -34 -43 -63
l-40 -54 123 -152 123 -152 150 -62 c83 -34 167 -70 188 -79 l39 -16 -46 -65
c-25 -35 -42 -66 -38 -69 7 -4 581 -258 641 -283 l33 -14 -61 -46 c-34 -25
-59 -49 -54 -53 4 -4 181 -59 393 -121 212 -62 387 -114 389 -116 3 -2 -19
-25 -49 -51 l-54 -47 372 -26 c205 -14 375 -29 378 -32 4 -3 -20 -36 -51 -74
l-58 -67 29 -8 c86 -24 200 -19 537 21 186 23 351 41 365 41 25 -1 61 -56 436
-669 225 -368 410 -677 411 -687 1 -11 95 -286 208 -612 114 -326 207 -594
207 -596 0 -6 -154 24 -161 31 -3 5 -53 60 -109 123 l-103 115 -201 57 c-110
31 -202 56 -203 55 -1 -1 6 -28 14 -60 9 -31 14 -59 12 -62 -3 -2 -74 18 -159
46 -132 42 -196 55 -423 90 -148 22 -271 38 -274 35 -3 -2 9 -25 27 -50 l31
-46 -48 0 c-26 0 -201 7 -388 15 -187 8 -362 15 -388 15 l-48 0 108 -105 c60
-59 99 -104 88 -101 -11 2 -94 14 -185 27 l-166 22 -299 -72 c-165 -40 -311
-75 -323 -78 -31 -7 -24 -13 106 -93 57 -34 101 -64 99 -66 -2 -2 -216 -60
-477 -129 -260 -68 -474 -126 -476 -128 -2 -1 37 -24 86 -51 50 -26 90 -50 90
-54 0 -4 -148 -92 -329 -197 -221 -128 -324 -192 -313 -196 10 -3 74 -19 144
-35 71 -16 128 -32 128 -35 0 -3 -143 -145 -317 -315 -175 -170 -319 -312
-321 -315 -1 -4 36 -19 83 -34 47 -16 87 -31 89 -34 2 -3 -65 -168 -149 -366
-84 -198 -151 -361 -150 -363 2 -2 151 -21 332 -43 180 -21 343 -41 362 -45
l33 -5 -43 -37 c-23 -20 -49 -42 -57 -48 -11 -8 13 -21 106 -59 l120 -48 249
30 c136 17 249 30 250 29 1 -1 -29 -41 -69 -89 -39 -48 -67 -91 -64 -95 4 -4
61 -25 126 -47 l119 -41 291 31 291 31 -7 -68 c-4 -37 -3 -68 1 -68 3 0 176
52 382 115 207 63 377 114 379 112 1 -1 -22 -35 -53 -76 l-55 -73 38 6 c22 4
91 20 154 36 63 15 116 27 117 26 2 -2 -117 -67 -264 -147 -146 -79 -266 -148
-265 -153 0 -5 36 -24 79 -43 43 -19 81 -38 85 -41 4 -4 -106 -70 -243 -146
-137 -77 -249 -142 -249 -145 0 -4 28 -19 62 -34 l61 -27 -39 -28 c-21 -15
-128 -90 -236 -166 -109 -76 -198 -142 -198 -145 0 -4 20 -22 45 -41 25 -19
45 -36 45 -39 0 -3 -88 -57 -195 -120 -107 -62 -195 -116 -195 -120 0 -3 49
-57 108 -119 105 -110 110 -114 252 -187 83 -42 138 -76 130 -79 -8 -3 -55
-17 -104 -32 -73 -21 -87 -29 -75 -38 9 -6 129 -101 268 -211 203 -160 249
-201 234 -207 -10 -4 -51 -17 -91 -28 -40 -12 -72 -24 -70 -28 2 -4 32 -34 68
-68 52 -49 102 -80 251 -157 l187 -96 158 -22 c88 -12 165 -24 171 -28 8 -4
-15 -22 -57 -45 -82 -44 -82 -43 19 -110 143 -94 163 -101 408 -126 l223 -24
0 -100 0 -99 238 7 c130 3 294 9 364 13 l127 6 58 73 c32 40 60 73 63 73 3 0
18 -11 34 -25 l28 -25 -30 -122 c-17 -67 -30 -122 -29 -123 1 -1 127 72 280
162 153 90 283 164 288 164 5 0 9 -19 9 -42 0 -71 9 -88 54 -107 l41 -18 80
73 c54 49 131 141 235 279 l155 205 3 -95 c3 -111 -8 -105 132 -72 l95 22 162
294 c89 162 167 299 172 304 5 5 22 -10 42 -39 19 -26 37 -53 42 -59 8 -12 4
-17 144 167 l102 134 86 334 c88 339 102 417 119 685 l6 90 -115 125 c-73 79
-164 194 -245 312 -142 203 -135 196 -393 392 l-167 127 -12 -26 c-9 -19 -16
-24 -32 -19 -12 4 -181 62 -376 130 -195 67 -356 122 -357 120 -1 -1 21 -27
48 -59 28 -31 48 -57 44 -57 -11 0 -689 140 -702 145 -18 6 -16 -5 12 -82 13
-37 23 -69 21 -70 -3 -3 -466 22 -587 32 l-67 5 -7 -58 c-4 -31 -9 -60 -11
-63 -2 -4 -45 4 -96 16 -51 12 -111 20 -133 18 -32 -3 -17 6 75 45 63 26 195
77 292 113 l178 64 177 192 c98 105 181 192 184 192 4 1 9 -22 13 -49 l7 -51
52 30 c29 16 102 58 163 93 89 50 121 75 161 123 27 33 158 196 292 362 l242
302 9 68 c21 151 -13 187 314 -334 161 -258 385 -614 497 -793 l205 -325 550
-676 c303 -372 553 -680 557 -685 3 -5 -170 9 -384 30 -214 22 -391 37 -393
35 -6 -6 -29 -179 -25 -184 4 -3 136 -26 778 -134 275 -47 284 -49 307 -77 12
-16 179 -211 371 -434 l348 -405 235 -92 c129 -51 238 -92 243 -90 5 1 -469
786 -487 804 -2 2 -16 -57 -32 -132 -16 -74 -32 -135 -35 -135 -3 0 -211 199
-462 443 l-456 442 -473 720 -473 721 -92 301 c-90 290 -92 302 -80 339 l14
38 84 -124 84 -125 6 160 c4 88 7 222 8 298 0 75 3 137 5 137 1 0 213 74 470
164 l467 165 287 279 c158 154 311 305 340 335 l54 55 -71 27 c-39 16 -69 31
-66 34 4 3 126 80 273 171 l266 165 117 180 117 180 -26 7 c-15 4 -45 10 -68
15 l-41 8 199 409 c109 225 196 411 194 413 -2 2 -48 9 -102 14 -55 6 -109 12
-120 15 -21 4 -16 17 81 231 56 126 134 297 174 381 39 85 71 155 71 156 0 2
-24 -5 -52 -15 -63 -22 -147 -24 -173 -5 -20 15 -21 -46 6 669 6 164 9 300 6
303 -2 3 -48 -16 -100 -43 -53 -26 -98 -45 -100 -43 -2 3 -36 158 -76 345 -40
187 -74 346 -76 352 -3 8 -30 -3 -80 -32 -51 -30 -77 -41 -80 -33 -2 7 -43
153 -91 323 -48 171 -88 312 -90 313 -1 2 -55 -12 -120 -32 -64 -20 -119 -34
-121 -32 -2 2 15 18 37 36 34 27 58 66 141 231 54 109 99 201 99 203 0 3 -26
2 -57 -1 -46 -5 -55 -4 -50 8 69 165 225 554 223 556 -1 1 -18 -1 -37 -6 -19
-5 -46 -12 -60 -15 l-27 -6 64 252 c34 139 61 254 59 256 -2 3 -25 -3 -51 -12
-26 -9 -49 -14 -51 -13 -1 2 26 79 62 172 70 181 70 179 49 350 -5 40 -5 40
-44 37 -22 -2 -40 0 -40 4 0 25 -68 586 -71 588 -2 2 -110 -36 -239 -85z
m-3705 -3729 l48 -275 143 -308 c98 -212 137 -306 125 -302 -15 4 -24 -38 -80
-357 -36 -200 -65 -365 -67 -367 -3 -3 -664 1314 -664 1323 0 2 38 7 84 11 46
4 88 10 93 14 12 7 253 527 253 544 0 7 3 7 8 2 5 -6 30 -134 57 -285z m2304
-527 c-37 -62 -59 -92 -152 -211 -49 -63 -87 -115 -85 -117 2 -2 48 6 102 16
54 11 100 18 102 17 1 -2 -37 -66 -85 -143 l-87 -140 -274 -218 c-151 -119
-284 -223 -294 -230 -18 -13 -19 -18 -7 -93 13 -82 48 -283 56 -320 4 -20 0
-22 -41 -26 -47 -3 -47 -3 -108 65 -33 37 -62 64 -64 58 -4 -13 49 -325 111
-653 32 -167 49 -278 43 -277 -6 0 -49 22 -96 48 -47 27 -87 44 -88 40 -2 -5
20 -193 48 -417 l52 -407 56 -90 c31 -49 141 -199 245 -333 l189 -243 28 -107
28 -107 -55 -275 c-30 -151 -58 -280 -62 -287 -3 -7 -108 144 -247 356 -239
363 -244 372 -398 693 -120 251 -156 334 -156 364 0 33 -17 68 -91 190 -61 99
-180 333 -356 699 l-265 550 35 583 c19 321 36 584 38 586 2 2 153 -18 334
-44 l330 -48 370 105 c204 58 373 109 378 112 4 4 -2 35 -14 70 -12 34 -19 64
-17 66 2 2 51 9 108 14 l105 10 150 91 c82 49 151 90 153 90 2 0 -7 -17 -19
-37z"/>
</g>
</svg>
